<?xml version="1.0" encoding="UTF-8" standalone="no"?><!DOCTYPE svg PUBLIC "-//W3C//DTD SVG 1.1//EN" "http://www.w3.org/Graphics/SVG/1.1/DTD/svg11.dtd"><svg width="100%" height="100%" viewBox="0 0 506 513" version="1.1" xmlns="http://www.w3.org/2000/svg" xmlns:xlink="http://www.w3.org/1999/xlink" xml:space="preserve" xmlns:serif="http://www.serif.com/" style="fill-rule:evenodd;clip-rule:evenodd;stroke-linejoin:round;stroke-miterlimit:2;"><path d="M190.175,20.378c0.721,5.759 2.446,13.375 4.633,23.013c5.567,24.529 13.979,61.6 16.142,111.542c0.317,7.325 0.471,14.404 0.5,21.254c-45.688,-59.046 -90.633,-68.959 -90.633,-68.959c-58.184,-12.833 -102.159,18.638 -106.184,23.284c-1.808,2.083 -2.116,4.5 -2.116,4.5c-1.88,9.141 7.82,15.075 11.008,17.025c4.95,3.029 11.979,6.425 20.879,10.725c22.65,10.941 56.879,27.479 97.271,56.925c5.925,4.321 11.558,8.612 16.929,12.862c-74.65,-1.096 -110.425,27.863 -110.425,27.863c-46.312,37.487 -49.121,91.491 -48,97.533c0.5,2.713 2.2,4.463 2.2,4.463c5.971,7.17 16.658,3.287 20.171,2.008c5.458,-1.983 12.496,-5.358 21.408,-9.638c22.675,-10.887 56.942,-27.333 105.15,-40.558c7.071,-1.937 13.938,-3.662 20.609,-5.212c-47.396,57.675 -47.063,103.704 -47.063,103.704c0.438,59.579 40.908,95.45 46.329,98.337c2.434,1.3 4.859,1.063 4.859,1.063c9.333,-0.2 12.958,-10.975 14.15,-14.521c1.85,-5.5 3.6,-13.108 5.808,-22.742c5.629,-24.516 14.137,-61.566 33.854,-107.5c2.892,-6.733 5.825,-13.179 8.771,-19.362c15.546,73.016 51.737,101.454 51.737,101.454c46.855,36.804 100.13,27.529 105.771,25.092c2.534,-1.092 3.859,-3.138 3.859,-3.138c5.662,-7.417 -0.505,-16.975 -2.53,-20.112c-3.145,-4.88 -8.008,-10.988 -14.162,-18.725c-15.654,-19.688 -39.321,-49.434 -62.938,-93.492c-3.462,-6.463 -6.675,-12.771 -9.67,-18.933c66.779,33.375 111.579,22.808 111.579,22.808c57.991,-13.683 83.954,-61.121 85.566,-67.05c0.721,-2.658 -0.045,-4.971 -0.045,-4.975c-2.275,-9.05 -13.588,-10.188 -17.305,-10.563c-5.775,-0.579 -13.583,-0.587 -23.47,-0.6c-25.15,-0.033 -63.163,-0.079 -112.334,-9.083c-7.212,-1.321 -14.15,-2.746 -20.833,-4.246c67.729,-31.4 87.4,-73.016 87.4,-73.016c25.458,-53.871 4.558,-103.746 0.929,-108.7c-1.629,-2.225 -3.917,-3.067 -3.917,-3.067c-8.495,-3.867 -16.437,4.271 -19.05,6.942c-4.054,4.154 -8.929,10.254 -15.104,17.975c-15.704,19.645 -39.446,49.333 -77.141,82.162c-5.525,4.813 -10.967,9.35 -16.305,13.638c17.68,-72.53 -2.591,-113.85 -2.591,-113.85c-26.246,-53.492 -78.271,-68.25 -84.409,-68.5c-2.758,-0.117 -4.841,1.15 -4.841,1.15c-8.317,4.229 -6.909,15.512 -6.446,19.22" style="fill:#62b257;fill-rule:nonzero;"/></svg>