<?xml version="1.0" encoding="UTF-8" standalone="no"?><!DOCTYPE svg PUBLIC "-//W3C//DTD SVG 1.1//EN" "http://www.w3.org/Graphics/SVG/1.1/DTD/svg11.dtd"><svg width="100%" height="100%" viewBox="0 0 1011 272" version="1.1" xmlns="http://www.w3.org/2000/svg" xmlns:xlink="http://www.w3.org/1999/xlink" xml:space="preserve" xmlns:serif="http://www.serif.com/" style="fill-rule:evenodd;clip-rule:evenodd;stroke-linejoin:round;stroke-miterlimit:2;"><g><path d="M328.009,79.794l34,-0l-0,145.712l-34,0l-0,-145.712Zm-2.429,-39.13c-0,-11.458 9.733,-20.787 21.446,-19.595c7.687,0.783 14.175,6.275 16.487,13.65c4.042,12.879 -5.717,25.375 -18.504,25.375c-10.792,-0 -19.429,-8.905 -19.429,-19.43" style="fill:#193b2c;fill-rule:nonzero;"/><path d="M624.529,135.918l0,89.587l-34,0l0,-82.304c0,-21.854 -12.683,-37.504 -33.458,-37.504c-20.508,-0 -35.621,16.729 -35.621,45.062l0,74.746l-33.996,0l0,-82.304c0,-21.854 -12.412,-37.504 -33.462,-37.504c-20.508,-0 -35.617,16.729 -35.617,45.062l0,74.746l-34,0l0,-145.983l34,-0l0,27.525c11.604,-21.321 30.763,-31.571 49.921,-31.571c21.583,0 42.092,12.95 49.917,38.046c11.062,-25.633 32.112,-38.046 53.158,-38.046c27.254,0 53.158,20.775 53.158,60.442" style="fill:#193b2c;fill-rule:nonzero;"/><path d="M757.256,152.378c0,-25.633 -17.27,-43.175 -42.904,-43.175c-27.525,0 -39.937,21.588 -39.937,43.175c-0,21.859 12.412,43.442 39.937,43.442c25.634,-0 42.904,-20.775 42.904,-43.442m34,0l0,73.125l-34,0l0,-24.825c-7.554,15.113 -25.095,28.871 -46.683,28.871c-42.092,0 -71.504,-30.758 -71.504,-77.171c-0,-43.175 29.142,-76.904 75.283,-76.904c45.604,0 76.904,31.842 76.904,76.904" style="fill:#193b2c;fill-rule:nonzero;"/><path d="M952.803,135.918l0,89.587l-33.729,0l-0,-83.65c-0,-23.475 -16.458,-36.158 -34.271,-36.158c-19.696,-0 -39.125,16.458 -39.125,45.062l0,74.746l-34,0l0,-145.983l34,-0l0,30.221c11.063,-21.317 30.221,-34.267 51,-34.267c29.413,0 56.125,20.238 56.125,60.442" style="fill:#193b2c;fill-rule:nonzero;"/><path d="M973.98,79.794l34,-0l-0,145.712l-34,0l-0,-145.712Zm-2.429,-39.13c-0,-11.458 9.733,-20.787 21.445,-19.595c7.688,0.783 14.18,6.275 16.488,13.65c4.042,12.879 -5.717,25.375 -18.504,25.375c-10.792,-0 -19.429,-8.905 -19.429,-19.43" style="fill:#193b2c;fill-rule:nonzero;"/><path d="M100.74,10.795c0.379,3.05 1.296,7.084 2.454,12.192c2.95,12.992 7.405,32.629 8.55,59.083c0.171,3.879 0.25,7.634 0.267,11.259c-24.2,-31.275 -48.012,-36.53 -48.012,-36.53c-30.821,-6.795 -54.113,9.875 -56.246,12.334c-0.959,1.104 -1.121,2.387 -1.121,2.387c-0.996,4.842 4.142,7.984 5.829,9.017c2.625,1.604 6.346,3.404 11.063,5.683c11.995,5.796 30.129,14.554 51.525,30.154c3.137,2.288 6.12,4.563 8.966,6.813c-39.541,-0.583 -58.491,14.758 -58.491,14.758c-24.534,19.859 -26.021,48.467 -25.43,51.667c0.267,1.437 1.167,2.362 1.167,2.362c3.163,3.8 8.825,1.742 10.683,1.067c2.892,-1.054 6.621,-2.842 11.342,-5.108c12.013,-5.767 30.163,-14.479 55.7,-21.484c3.746,-1.025 7.383,-1.941 10.917,-2.762c-25.104,30.554 -24.929,54.933 -24.929,54.933c0.233,31.563 21.67,50.563 24.541,52.096c1.288,0.683 2.575,0.563 2.575,0.563c4.942,-0.109 6.863,-5.817 7.492,-7.692c0.983,-2.917 1.908,-6.946 3.079,-12.05c2.983,-12.988 7.488,-32.613 17.933,-56.946c1.534,-3.567 3.084,-6.979 4.646,-10.254c8.234,38.679 27.404,53.742 27.404,53.742c24.821,19.495 53.042,14.583 56.03,13.291c1.341,-0.579 2.045,-1.662 2.045,-1.662c3,-3.929 -0.266,-8.992 -1.341,-10.654c-1.667,-2.584 -4.242,-5.821 -7.5,-9.921c-8.296,-10.425 -20.829,-26.184 -33.338,-49.521c-1.837,-3.425 -3.537,-6.767 -5.125,-10.029c35.375,17.679 59.104,12.079 59.104,12.079c30.721,-7.246 44.475,-32.375 45.33,-35.517c0.383,-1.408 -0.025,-2.633 -0.025,-2.633c-1.205,-4.796 -7.2,-5.4 -9.167,-5.596c-3.063,-0.308 -7.196,-0.312 -12.433,-0.321c-13.325,-0.016 -33.459,-0.041 -59.505,-4.812c-3.82,-0.7 -7.495,-1.454 -11.037,-2.246c35.879,-16.633 46.296,-38.679 46.296,-38.679c13.487,-28.534 2.416,-54.954 0.491,-57.579c-0.862,-1.18 -2.075,-1.625 -2.075,-1.625c-4.495,-2.05 -8.704,2.262 -10.087,3.679c-2.15,2.2 -4.729,5.429 -8,9.516c-8.321,10.409 -20.896,26.138 -40.867,43.525c-2.925,2.55 -5.808,4.955 -8.633,7.225c9.362,-38.42 -1.375,-60.308 -1.375,-60.308c-13.904,-28.337 -41.463,-36.154 -44.713,-36.287c-1.458,-0.059 -2.562,0.608 -2.562,0.608c-4.408,2.242 -3.663,8.221 -3.417,10.183" style="fill:#62b257;fill-rule:nonzero;"/></g></svg>