<?xml version="1.0" encoding="UTF-8" standalone="no"?><!DOCTYPE svg PUBLIC "-//W3C//DTD SVG 1.1//EN" "http://www.w3.org/Graphics/SVG/1.1/DTD/svg11.dtd"><svg width="100%" height="100%" viewBox="0 0 1642 441" version="1.1" xmlns="http://www.w3.org/2000/svg" xmlns:xlink="http://www.w3.org/1999/xlink" xml:space="preserve" xmlns:serif="http://www.serif.com/" style="fill-rule:evenodd;clip-rule:evenodd;stroke-linejoin:round;stroke-miterlimit:2;"><g><path d="M532.885,129.631l55.234,-0l-0,236.72l-55.234,0l0,-236.72Zm-3.946,-63.563c0,-18.617 15.809,-33.771 34.838,-31.833c12.487,1.271 23.029,10.191 26.787,22.166c6.559,20.93 -9.291,41.23 -30.062,41.23c-17.538,-0 -31.563,-14.467 -31.563,-31.563" style="fill:#fff;fill-rule:nonzero;"/><path d="M1014.61,220.813l-0,145.542l-55.238,-0l0,-133.704c0,-35.509 -20.6,-60.934 -54.354,-60.934c-33.317,0 -57.867,27.175 -57.867,73.209l0,121.429l-55.237,-0l-0,-133.704c-0,-35.509 -20.163,-60.934 -54.354,-60.934c-33.321,0 -57.867,27.175 -57.867,73.209l-0,121.429l-55.238,-0l0,-237.163l55.238,0l-0,44.713c18.85,-34.629 49.975,-51.288 81.1,-51.288c35.067,0 68.383,21.042 81.096,61.813c17.975,-41.646 52.166,-61.813 86.362,-61.813c44.275,0 86.359,33.754 86.359,98.196" style="fill:#fff;fill-rule:nonzero;"/><path d="M1230.23,247.554c0,-41.646 -28.054,-70.142 -69.7,-70.142c-44.717,0 -64.879,35.071 -64.879,70.142c-0,35.508 20.162,70.579 64.879,70.579c41.646,0 69.7,-33.758 69.7,-70.579m55.238,-0l-0,118.8l-55.238,-0l0,-40.329c-12.275,24.546 -40.771,46.904 -75.837,46.904c-68.388,-0 -116.171,-49.975 -116.171,-125.375c-0,-70.142 47.346,-124.938 122.308,-124.938c74.083,0 124.938,51.73 124.938,124.938" style="fill:#fff;fill-rule:nonzero;"/><path d="M1547.92,220.813l-0,145.542l-54.796,-0l-0,-135.896c-0,-38.142 -26.742,-58.742 -55.675,-58.742c-32,0 -63.563,26.738 -63.563,73.209l0,121.429l-55.237,-0l-0,-237.163l55.237,0l0,49.1c17.971,-34.633 49.096,-55.675 82.85,-55.675c47.784,0 91.184,32.879 91.184,98.196" style="fill:#fff;fill-rule:nonzero;"/><path d="M1582.32,129.631l55.233,-0l0,236.72l-55.233,0l-0,-236.72Zm-3.946,-63.563c-0,-18.617 15.808,-33.771 34.842,-31.833c12.487,1.271 23.029,10.191 26.783,22.166c6.562,20.93 -9.288,41.23 -30.058,41.23c-17.538,-0 -31.567,-14.467 -31.567,-31.563" style="fill:#fff;fill-rule:nonzero;"/><path d="M163.662,17.539c0.617,4.959 2.104,11.509 3.987,19.804c4.792,21.113 12.03,53.013 13.892,95.992c0.271,6.3 0.404,12.396 0.429,18.288c-39.316,-50.809 -77.996,-59.342 -77.996,-59.342c-50.075,-11.046 -87.916,16.037 -91.379,20.037c-1.554,1.792 -1.825,3.871 -1.825,3.871c-1.616,7.867 6.734,12.975 9.475,14.65c4.263,2.609 10.313,5.534 17.971,9.234c19.492,9.416 48.946,23.645 83.708,48.987c5.096,3.717 9.946,7.413 14.567,11.067c-64.237,-0.942 -95.029,23.979 -95.029,23.979c-39.854,32.262 -42.271,78.737 -41.308,83.937c0.433,2.334 1.891,3.842 1.891,3.842c5.142,6.167 14.342,2.825 17.363,1.725c4.696,-1.704 10.754,-4.612 18.421,-8.296c19.516,-9.366 49.008,-23.521 90.491,-34.9c6.084,-1.666 11.996,-3.154 17.738,-4.487c-40.788,49.637 -40.5,89.246 -40.5,89.246c0.375,51.275 35.2,82.141 39.866,84.629c2.096,1.116 4.184,0.912 4.184,0.912c8.029,-0.171 11.15,-9.446 12.175,-12.496c1.591,-4.733 3.096,-11.283 5,-19.57c4.841,-21.1 12.162,-52.984 29.133,-92.513c2.488,-5.796 5.013,-11.342 7.55,-16.662c13.375,62.837 44.521,87.308 44.521,87.308c40.321,31.675 86.171,23.692 91.025,21.596c2.179,-0.942 3.321,-2.7 3.321,-2.7c4.871,-6.388 -0.434,-14.609 -2.175,-17.313c-2.709,-4.196 -6.892,-9.454 -12.188,-16.112c-13.475,-16.942 -33.841,-42.542 -54.162,-80.459c-2.984,-5.558 -5.746,-10.991 -8.325,-16.291c57.471,28.725 96.021,19.629 96.021,19.629c49.908,-11.775 72.25,-52.6 73.637,-57.704c0.625,-2.288 -0.037,-4.279 -0.037,-4.279c-1.959,-7.788 -11.692,-8.767 -14.892,-9.088c-4.971,-0.5 -11.692,-0.508 -20.196,-0.521c-21.65,-0.025 -54.362,-0.066 -96.675,-7.816c-6.208,-1.138 -12.179,-2.363 -17.929,-3.655c58.287,-27.02 75.217,-62.833 75.217,-62.833c21.908,-46.362 3.92,-89.283 0.795,-93.55c-1.4,-1.912 -3.37,-2.637 -3.37,-2.637c-7.309,-3.325 -14.146,3.675 -16.392,5.975c-3.488,3.575 -7.683,8.825 -12.996,15.466c-13.521,16.909 -33.946,42.459 -66.387,70.709c-4.759,4.145 -9.438,8.045 -14.034,11.737c15.213,-62.417 -2.229,-97.979 -2.229,-97.979c-22.587,-46.033 -67.358,-58.733 -72.642,-58.95c-2.37,-0.096 -4.162,0.992 -4.162,0.992c-7.158,3.641 -5.95,13.35 -5.55,16.541" style="fill:#00ca00;fill-rule:nonzero;"/></g></svg>